<?xml version="1.0" encoding="UTF-8"?>
<svg width="324px" height="199px" viewBox="0 0 324 199" version="1.1" xmlns="http://www.w3.org/2000/svg" xmlns:xlink="http://www.w3.org/1999/xlink">
    <!-- Generator: Sketch 47.1 (45422) - http://www.bohemiancoding.com/sketch -->
    <title>audit</title>
    <desc>Created with Sketch.</desc>
    <defs>
        <polygon id="path-1" points="-5.42101086e-20 196.461495 -5.42101086e-20 0.895327103 325 0.895327103 325 198.130841 -5.42101086e-20 198.130841 -5.42101086e-20 196.461495 50.580273 196.461495 50.580273 190.885794 -0.000186781609 190.885794 -0.000186781609 196.461495"></polygon>
    </defs>
    <g id="Page-1" stroke="none" stroke-width="1" fill="none" fill-rule="evenodd">
        <g id="Desktop-HD" transform="translate(-866.000000, -4015.000000)">
            <g id="What-measures-we-take-to-protect-your-data" transform="translate(1.000000, 2627.000000)">
                <g id="audit" transform="translate(864.000000, 1387.000000)">
                    <g id="Page-1">
                        <path d="M259.292658,1.86915888 L246.203003,1.86915888 L246.203003,28.2186916 L259.292658,28.2186916 C266.528578,28.2186916 272.535474,22.364486 272.535474,15.1214953 C272.535474,7.88037383 266.683606,1.86915888 259.292658,1.86915888" id="Fill-1" fill="#E2E2E2"></path>
                        <path d="M111.164382,1.86915888 C104.234784,1.86915888 98.5379454,7.41682243 98.5379454,14.3514019 L98.5379454,199.104673 L233.885503,199.104673 L233.577313,199.104673 C240.505043,199.104673 246.20375,193.557009 246.20375,186.62243 L246.20375,14.5046729 C246.20375,7.57009346 251.900589,1.86915888 258.983348,1.86915888 L111.164382,1.86915888 Z" id="Fill-3" fill="#F4F4F4"></path>
                        <path d="M221.411106,186.777196 C221.411106,179.995888 227.111681,174.448224 234.039411,174.448224 L88.0658477,174.448224 C81.13625,174.448224 75.4412787,179.995888 75.4412787,186.777196 C75.4412787,193.556636 81.13625,199.10243 88.0658477,199.10243 L234.039411,199.10243 C227.111681,199.10243 221.411106,193.556636 221.411106,186.777196" id="Fill-5" fill="#E2E2E2"></path>
                        <path d="M322.698103,36.4850467 L272.063477,36.4850467 C270.791494,36.4850467 269.76046,35.453271 269.76046,34.182243 L269.76046,33.2102804 C269.76046,31.9373832 270.791494,30.9074766 272.063477,30.9074766 L322.698103,30.9074766 C323.970086,30.9074766 324.999253,31.9373832 324.999253,33.2102804 L324.999253,34.182243 C324.999253,35.453271 323.970086,36.4850467 322.698103,36.4850467" id="Fill-7" fill="#E2E2E2"></path>
                        <path d="M297.444296,47.802243 L262.301336,47.802243 C261.031221,47.802243 260.000187,46.7704673 260.000187,45.5013084 L260.000187,44.5274766 C260.000187,43.2564486 261.031221,42.2265421 262.301336,42.2265421 L297.444296,42.2265421 C298.716279,42.2265421 299.745445,43.2564486 299.745445,44.5274766 L299.745445,45.5013084 C299.745445,46.7704673 298.716279,47.802243 297.444296,47.802243" id="Fill-9" fill="#E2E2E2"></path>
                        <path d="M283.623578,59.1194393 L252.251739,59.1194393 C250.979756,59.1194393 249.950589,58.0876636 249.950589,56.8166355 L249.950589,55.8446729 C249.950589,54.5717757 250.979756,53.5418692 252.251739,53.5418692 L283.623578,53.5418692 C284.89556,53.5418692 285.924727,54.5717757 285.924727,55.8446729 L285.924727,56.8166355 C285.924727,58.0876636 284.89556,59.1194393 283.623578,59.1194393" id="Fill-11" fill="#E2E2E2"></path>
                        <path d="M217.491121,93.9106542 C209.115833,93.9106542 204.027902,89.4153271 201.836954,86.8975701 C201.173879,86.1368224 199.965402,86.1368224 199.302328,86.8975701 C197.111379,89.4153271 192.023448,93.9106542 183.648161,93.9106542 L173.225747,93.9106542 C172.555201,93.9106542 172.013534,94.4246729 172.013534,95.0601869 L172.013534,110.170467 C172.013534,135.103178 193.166552,147.026542 200.568707,149.194766 C207.97273,147.026542 229.125747,135.103178 229.125747,110.170467 L229.125747,95.0601869 C229.125747,94.4246729 228.582213,93.9106542 227.913534,93.9106542 L217.491121,93.9106542 Z" id="Fill-13" fill="#499FFF"></path>
                        <path d="M225.053721,101.56243 L225.053721,101.56243 C223.783606,100.108224 221.555302,99.9568224 220.102141,101.22785 L194.561624,123.553084 L184.772399,112.926916 C183.461193,111.506355 181.23102,111.414766 179.81148,112.725047 C178.393807,114.035327 178.304152,116.267103 179.611624,117.687664 L191.662773,130.766168 C192.753578,131.951215 194.488779,132.20729 195.85602,131.498879 C196.199698,131.356822 196.526566,131.16243 196.819813,130.904486 L224.719382,106.51757 C226.174411,105.246542 226.323836,103.016636 225.053721,101.56243" id="Fill-15" fill="#FFFFFF"></path>
                        <polygon id="Fill-17" fill="#354B5E" points="241.329497 147.603364 250.156796 131.831402 264.509095 138.96972 255.685532 154.743551"></polygon>
                        <path d="M236.742141,133.905981 C226.366422,153.567664 202.460244,160.958318 182.810819,150.573271 C163.161394,140.190093 155.777917,116.26486 166.153635,96.6031776 C176.529353,76.9414953 200.437399,69.5508411 220.084957,79.9340187 C239.370158,90.1246729 246.839555,114.328411 236.742141,133.905981 M226.426193,67.9190654 C200.228204,54.0742056 167.982227,64.0424299 154.147313,90.2573832 C140.312399,116.476075 150.273463,148.745234 176.469583,162.590093 C202.66944,176.433084 234.915417,166.466729 248.75033,140.251776 C262.30694,114.119065 252.624181,81.7639252 226.426193,67.9190654" id="Fill-19" fill="#435B6C"></path>
                        <path d="M300.368175,145.823551 L272.25194,130.965607 C268.477083,128.969346 263.986853,130.358131 262.315158,134.036636 L251.013003,155.453458 C249.020043,159.234766 250.405963,163.726355 254.083693,165.401121 L282.19806,180.259065 C291.849066,185.358131 303.39217,181.789907 308.48944,172.131963 C313.584842,162.474019 310.021049,150.924486 300.368175,145.823551" id="Fill-21" fill="#EF6132"></path>
                        <polygon id="Fill-23" fill="#FFD55C" points="270.364511 173.700374 288.54023 139.253645 295.959195 143.17514 277.783477 177.62"></polygon>
                        <path d="M71.9254885,174.801121 L29.731523,174.801121 C28.1924425,174.801121 26.9447414,173.554393 26.9447414,172.014206 C26.9447414,170.474019 28.1924425,169.225421 29.731523,169.225421 L71.9254885,169.225421 C73.464569,169.225421 74.7122701,170.474019 74.7122701,172.014206 C74.7122701,173.554393 73.464569,174.801121 71.9254885,174.801121" id="Fill-25" fill="#E2E2E2"></path>
                        <path d="M56.0107615,186.12 L15.8620546,186.12 C14.3229741,186.12 13.075273,184.871402 13.075273,183.331215 C13.075273,181.792897 14.3229741,180.544299 15.8620546,180.544299 L56.0107615,180.544299 C57.549842,180.544299 58.7975431,181.792897 58.7975431,183.331215 C58.7975431,184.871402 57.549842,186.12 56.0107615,186.12" id="Fill-27" fill="#E2E2E2"></path>
                        <g id="Group-31" transform="translate(0.000000, 0.973832)">
                            <mask id="mask-2" fill="white">
                                <use xlink:href="#path-1"></use>
                            </mask>
                            <g id="Clip-30"></g>
                            <path d="M47.7934914,196.461495 L2.78659483,196.461495 C1.24751437,196.461495 -0.000186781609,195.212897 -0.000186781609,193.674579 C-0.000186781609,192.134393 1.24751437,190.885794 2.78659483,190.885794 L47.7934914,190.885794 C49.3325718,190.885794 50.580273,192.134393 50.580273,193.674579 C50.580273,195.212897 49.3325718,196.461495 47.7934914,196.461495" id="Fill-29" fill="#E2E2E2" mask="url(#mask-2)"></path>
                        </g>
                        <path d="M228.82204,36.9779439 L126.794454,36.9779439 C125.257241,36.9779439 124.00954,35.7293458 124.00954,34.1891589 C124.00954,32.6508411 125.257241,31.402243 126.794454,31.402243 L228.82204,31.402243 C230.361121,31.402243 231.608822,32.6508411 231.608822,34.1891589 C231.608822,35.7293458 230.361121,36.9779439 228.82204,36.9779439" id="Fill-32" fill="#E2E2E2"></path>
                        <path d="M115.804598,34.188785 C115.804598,35.7383178 114.549425,36.9925234 113.002874,36.9925234 C111.456322,36.9925234 110.201149,35.7383178 110.201149,34.188785 C110.201149,32.6411215 111.456322,31.3850467 113.002874,31.3850467 C114.549425,31.3850467 115.804598,32.6411215 115.804598,34.188785" id="Fill-34" fill="#E2E2E2"></path>
                        <path d="M228.82204,47.2839252 L126.794454,47.2839252 C125.257241,47.2839252 124.00954,46.0353271 124.00954,44.4951402 C124.00954,42.9549533 125.257241,41.7063551 126.794454,41.7063551 L228.82204,41.7063551 C230.361121,41.7063551 231.608822,42.9549533 231.608822,44.4951402 C231.608822,46.0353271 230.361121,47.2839252 228.82204,47.2839252" id="Fill-36" fill="#E2E2E2"></path>
                        <path d="M115.804598,44.4947664 C115.804598,46.0424299 114.549425,47.2985047 113.002874,47.2985047 C111.456322,47.2985047 110.201149,46.0424299 110.201149,44.4947664 C110.201149,42.9471028 111.456322,41.691028 113.002874,41.691028 C114.549425,41.691028 115.804598,42.9471028 115.804598,44.4947664" id="Fill-38" fill="#E2E2E2"></path>
                        <path d="M193.919095,58.524486 L126.063204,58.524486 C124.524124,58.524486 123.276422,57.2758879 123.276422,55.7357009 C123.276422,54.195514 124.524124,52.9469159 126.063204,52.9469159 L193.919095,52.9469159 C195.458175,52.9469159 196.705876,54.195514 196.705876,55.7357009 C196.705876,57.2758879 195.458175,58.524486 193.919095,58.524486" id="Fill-40" fill="#E2E2E2"></path>
                        <path d="M115.804598,55.7353271 C115.804598,57.2829907 114.549425,58.5390654 113.002874,58.5390654 C111.456322,58.5390654 110.201149,57.2829907 110.201149,55.7353271 C110.201149,54.1876636 111.456322,52.9315888 113.002874,52.9315888 C114.549425,52.9315888 115.804598,54.1876636 115.804598,55.7353271" id="Fill-42" fill="#E2E2E2"></path>
                    </g>
                </g>
            </g>
        </g>
    </g>
</svg>